<svg viewBox="0 0 512 512" xmlns="http://www.w3.org/2000/svg" fill="#FFFFFF">
    <path d="M437.02 74.98C388.668 26.63 324.379 0 256 0S123.332 26.629 74.98 74.98C26.63 123.332 0 187.621 0 256s26.629 132.668 74.98 181.02C123.332 485.37 187.621 512 256 512c46.812 0 92.617-12.758 132.46-36.895 9.45-5.722 12.47-18.02 6.747-27.464-5.723-9.45-18.023-12.47-27.469-6.746C334.145 461.242 295.504 472 256 472c-112.36 0-204.941-86.238-215.066-196h127.308c9.121 40.031 45.004 70 87.758 70s78.637-29.969 87.758-70h127.304c-3.328 35.496-15.496 69.684-35.687 99.887-6.14 9.18-3.672 21.601 5.512 27.742 9.18 6.137 21.601 3.668 27.742-5.512C497 355.676 512 306.531 512 256c0-68.379-26.629-132.668-74.98-181.02zM256 40c112.36 0 204.941 86.238 215.066 196H343.758c-9.121-40.031-45.004-70-87.758-70s-78.637 29.969-87.758 70H40.934C51.059 126.238 143.64 40 256 40zm0 266c-27.57 0-50-22.43-50-50s22.43-50 50-50 50 22.43 50 50-22.43 50-50 50zm0 0"/>
</svg>